<svg version="1.1" viewBox="0.0 0.0 480.0 480.0" fill="none" stroke="none" stroke-linecap="square" stroke-miterlimit="10" xmlns:xlink="http://www.w3.org/1999/xlink" xmlns="http://www.w3.org/2000/svg"><clipPath id="p.0"><path d="m0 0l480.0 0l0 480.0l-480.0 0l0 -480.0z" clip-rule="nonzero"/></clipPath><g clip-path="url(#p.0)"><path fill="#000000" fill-opacity="0.0" d="m0 0l480.0 0l0 480.0l-480.0 0z" fill-rule="evenodd"/><path fill="#ffd966" d="m332.84903 64.89901l0 0c8.161072 -8.161053 21.392761 -8.161053 29.553802 0l59.107605 59.107613l0 0c3.919098 3.9190826 6.120819 9.234497 6.120819 14.776901c0 5.5424194 -2.2017212 10.857834 -6.120819 14.776901l-228.77689 228.77692c-8.1610565 8.161041 -21.392746 8.161041 -29.553802 0l-59.10762 -59.107605c-8.1610565 -8.161072 -8.1610565 -21.392761 0 -29.553833z" fill-rule="evenodd"/><path stroke="#000000" stroke-width="1.0" stroke-linejoin="round" stroke-linecap="butt" d="m332.84903 64.89901l0 0c8.161072 -8.161053 21.392761 -8.161053 29.553802 0l59.107605 59.107613l0 0c3.919098 3.9190826 6.120819 9.234497 6.120819 14.776901c0 5.5424194 -2.2017212 10.857834 -6.120819 14.776901l-228.77689 228.77692c-8.1610565 8.161041 -21.392746 8.161041 -29.553802 0l-59.10762 -59.107605c-8.1610565 -8.161072 -8.1610565 -21.392761 0 -29.553833z" fill-rule="evenodd"/><path fill="#c7ac7e" d="m189.57669 385.5203l-148.4567 59.795258l59.795273 -148.4567z" fill-rule="evenodd"/><path stroke="#000000" stroke-width="1.0" stroke-linejoin="round" stroke-linecap="butt" d="m189.57669 385.5203l-148.4567 59.795258l59.795273 -148.4567z" fill-rule="evenodd"/><path fill="#000000" d="m90.16126 425.44373l-49.039368 19.874023l19.874016 -49.039368z" fill-rule="evenodd"/><path stroke="#000000" stroke-width="1.0" stroke-linejoin="round" stroke-linecap="butt" d="m90.16126 425.44373l-49.039368 19.874023l19.874016 -49.039368z" fill-rule="evenodd"/><path fill="#d5a6bd" d="m397.73535 19.215607l69.45892 69.45893c2.5464172 2.5464096 3.9769592 6.0000763 3.9769592 9.601242c0 3.6011658 -1.430542 7.05484 -3.9769592 9.601242l-48.005066 48.00506c-3.9672852E-4 4.119873E-4 -0.0010681152 4.119873E-4 -0.0014648438 0l-88.65994 -88.661415l0 0c-3.9672852E-4 -4.119873E-4 -3.9672852E-4 -0.0010681152 0 -0.0014801025l48.005066 -48.00358l0 0c5.3026123 -5.30262 13.899872 -5.30262 19.202484 0z" fill-rule="evenodd"/><path stroke="#000000" stroke-width="1.0" stroke-linejoin="round" stroke-linecap="butt" d="m397.73535 19.215607l69.45892 69.45893c2.5464172 2.5464096 3.9769592 6.0000763 3.9769592 9.601242c0 3.6011658 -1.430542 7.05484 -3.9769592 9.601242l-48.005066 48.00506c-3.9672852E-4 4.119873E-4 -0.0010681152 4.119873E-4 -0.0014648438 0l-88.65994 -88.661415l0 0c-3.9672852E-4 -4.119873E-4 -3.9672852E-4 -0.0010681152 0 -0.0014801025l48.005066 -48.00358l0 0c5.3026123 -5.30262 13.899872 -5.30262 19.202484 0z" fill-rule="evenodd"/></g></svg>